<svg width="30" height="30" viewBox="0 0 30 30" fill="none" xmlns="http://www.w3.org/2000/svg">
<path d="M15 0C6.7381 0 0 6.7381 0 15C0 23.2619 6.7381 30 15 30C23.2619 30 30 23.2619 30 15C30 6.7381 23.2619 0 15 0ZM15 28.0952C7.78571 28.0952 1.90476 22.2143 1.90476 15C1.90476 7.78571 7.78571 1.90476 15 1.90476C22.2143 1.90476 28.0952 7.78571 28.0952 15C28.0952 22.2143 22.2143 28.0952 15 28.0952Z" fill="#1921D9"/>
<path d="M15.9524 12.7378H14.0476V22.2616H15.9524V12.7378Z" fill="#1921D9"/>
<path d="M15.9524 8.21411H14.0476V10.1189H15.9524V8.21411Z" fill="#1921D9"/>
</svg>
