<svg width="40" height="40" viewBox="0 0 40 40" fill="none" xmlns="http://www.w3.org/2000/svg">
<path d="M27.5487 7.68631C26.1462 6.28881 24.7262 4.91006 23.275 3.56381C22.8662 3.12006 22.2825 2.84256 21.6337 2.84256C21.6237 2.84256 21.615 2.84256 21.605 2.84256C21.1037 2.89131 20.645 2.99881 20.21 3.15881L20.2487 3.14631L11.1737 7.68381L27.5487 7.68631ZM8.74375 8.74381V27.1301C8.73125 27.2338 8.72375 27.3538 8.72375 27.4751C8.72375 28.2526 9.0275 28.9601 9.5225 29.4838L9.52125 29.4826L17.1987 37.1588H30.51V30.5088L8.74375 8.74381ZM7.685 7.68381C7.685 7.68381 15.5675 3.74506 19.5075 1.77381C20.1275 1.46131 20.8575 1.27881 21.6312 1.27881C21.6962 1.27881 21.7625 1.28006 21.8275 1.28256H21.8187C22.8262 1.48131 23.71 1.91256 24.445 2.52006L24.435 2.51256L38.7212 16.8001V32.0701H32.0712V38.7201H16.5537L2.515 24.6813C1.77125 23.9163 1.305 22.8776 1.28375 21.7288V21.7251C1.3475 21.0863 1.5225 20.5026 1.79 19.9726L1.7775 20.0013L7.685 7.68381Z" fill="white"/>
</svg>
