<svg width="33" height="34" viewBox="0 0 33 34" fill="none" xmlns="http://www.w3.org/2000/svg">
<path fill-rule="evenodd" clip-rule="evenodd" d="M5.34234 7.41927C4.4074 8.31372 3.78125 9.76505 3.78125 12.0417V21.9584C3.78125 24.235 4.4074 25.6863 5.34234 26.5808C6.29111 27.4885 7.72058 27.9792 9.625 27.9792H23.375C25.2794 27.9792 26.7088 27.4885 27.6577 26.5808C28.5926 25.6863 29.2188 24.235 29.2188 21.9584V12.0417C29.2188 9.76505 28.5926 8.31372 27.6577 7.41927C26.7088 6.51157 25.2794 6.02087 23.375 6.02087H9.625C7.72058 6.02087 6.29111 6.51157 5.34234 7.41927ZM3.93891 5.86207C5.39639 4.46768 7.40442 3.89587 9.625 3.89587H23.375C25.5956 3.89587 27.6037 4.46768 29.061 5.86207C30.5324 7.26969 31.2812 9.36003 31.2812 12.0417V21.9584C31.2812 24.6401 30.5324 26.7304 29.061 28.138C27.6037 29.5324 25.5956 30.1042 23.375 30.1042H9.625C7.40442 30.1042 5.39639 29.5324 3.93891 28.138C2.4676 26.7304 1.71875 24.6401 1.71875 21.9584V12.0417C1.71875 9.36003 2.4676 7.26969 3.93891 5.86207Z" fill="white"/>
<path fill-rule="evenodd" clip-rule="evenodd" d="M26.6245 10.3563C26.9728 10.8206 26.8897 11.4879 26.4391 11.8467L18.8119 17.9189C17.4501 19.0029 15.5497 19.0029 14.1879 17.9189L6.56067 11.8467C6.10999 11.4879 6.02695 10.8206 6.3752 10.3563C6.72344 9.89192 7.37108 9.80637 7.82177 10.1652L15.4489 16.2373C16.0679 16.7302 16.9318 16.7302 17.5507 16.2373L25.178 10.1652C25.6287 9.80637 26.2763 9.89192 26.6245 10.3563Z" fill="#BFBFBF"/>
</svg>
