<svg width="27" height="27" viewBox="0 0 27 27" fill="none" xmlns="http://www.w3.org/2000/svg">
<path d="M17.0534 24.75C17.2507 22.6071 17.5266 18.7495 16.4611 17.7857C15.2767 18.3214 28.3059 16.1786 21.7913 6C22.1861 5.28571 22.3836 3.85714 21.7913 2.25C20.0147 2.24989 18.2379 2.78583 17.0534 3.85714C16.6585 3.67862 15.3952 3.32154 13.5 3.32154" stroke="white" stroke-width="2" stroke-linecap="round" stroke-linejoin="round"/>
<path d="M10.3004 24.75C10.2383 24.0011 10.1675 23.0426 10.1427 22.0714M10.1427 22.0714C4.91636 22.0714 6.57464 20.6786 3.375 18C5.50809 19.7143 8.39482 21.1786 10.1341 21.5358M10.1427 22.0714C10.1382 21.8928 10.1352 21.7139 10.1341 21.5358M13.5 3.32154C11.7935 3.32154 10.6559 3.67862 10.3004 3.85714C9.23383 2.78583 7.63401 2.24989 6.03423 2.25C5.50092 3.85714 5.67873 5.28571 6.03423 6C0.168215 16.1786 11.9001 18.3214 10.8337 17.7857C10.2713 18.3507 10.1239 19.9101 10.1341 21.5358" stroke="white" stroke-width="2" stroke-linecap="round" stroke-linejoin="round"/>
</svg>
