<svg width="30" height="30" viewBox="0 0 30 30" fill="none" xmlns="http://www.w3.org/2000/svg">
<path fill-rule="evenodd" clip-rule="evenodd" d="M15.0001 1.5625C11.8082 1.56086 8.71995 2.69549 6.28834 4.76321C3.85673 6.83093 2.24056 9.6967 1.72923 12.8474C1.21791 15.9981 1.84482 19.2279 3.4977 21.9585C5.15059 24.6891 7.72151 26.7421 10.7501 27.75C11.4251 27.875 11.6688 27.4625 11.6688 27.125C11.6688 26.7875 11.6688 25.9625 11.6688 24.8438C7.91885 25.6563 7.14385 23.0438 7.14385 23.0438C6.8958 22.2171 6.35613 21.5087 5.6251 21.05C4.40635 20.2188 5.71885 20.2313 5.71885 20.2313C6.14457 20.2908 6.55108 20.4468 6.90741 20.6872C7.26375 20.9277 7.56051 21.2463 7.7751 21.6188C8.9751 23.675 10.9001 23.0813 11.6876 22.7375C11.7498 22.0547 12.0534 21.4165 12.5438 20.9375C9.55635 20.6 6.41885 19.45 6.41885 14.3C6.39905 12.964 6.89615 11.672 7.80635 10.6938C7.39282 9.53531 7.4398 8.26231 7.9376 7.1375C7.9376 7.1375 9.0626 6.775 11.6313 8.5125C13.8329 7.91249 16.1548 7.91249 18.3563 8.5125C20.9251 6.775 22.0501 7.1375 22.0501 7.1375C22.5441 8.26318 22.591 9.53472 22.1813 10.6938C23.0898 11.6726 23.5847 12.9647 23.5626 14.3C23.5626 19.4625 20.4376 20.5938 17.4313 20.9313C17.7539 21.2581 18.0024 21.6505 18.1598 22.0819C18.3173 22.5133 18.38 22.9735 18.3438 23.4313C18.3438 25.225 18.3438 26.675 18.3438 27.1188C18.3438 27.5625 18.5876 27.8938 19.2688 27.7438C22.2943 26.7319 24.8612 24.6767 26.5102 21.9458C28.1592 19.2148 28.7828 15.9862 28.2694 12.8376C27.756 9.689 26.1392 6.82573 23.7081 4.76C21.277 2.69428 18.1903 1.56086 15.0001 1.5625Z" stroke="black" stroke-width="1.25" stroke-linecap="round" stroke-linejoin="round"/>
</svg>
