<svg width="30" height="30" viewBox="0 0 30 30" fill="none" xmlns="http://www.w3.org/2000/svg">
<path d="M22.1125 6.53748C21.8418 6.5338 21.5761 6.61046 21.349 6.75777C21.1219 6.90509 20.9436 7.11643 20.8366 7.36509C20.7296 7.61375 20.6987 7.88855 20.7479 8.15475C20.797 8.42095 20.9241 8.66659 21.1128 8.86061C21.3016 9.05463 21.5437 9.18831 21.8084 9.24476C22.0732 9.30121 22.3487 9.27789 22.6002 9.17774C22.8517 9.0776 23.0679 8.90513 23.2213 8.68214C23.3748 8.45915 23.4587 8.19566 23.4625 7.92498V7.88748C23.4592 7.53045 23.3159 7.18896 23.0635 6.93649C22.811 6.68402 22.4695 6.54074 22.1125 6.53748Z" stroke="black" stroke-width="1.25" stroke-linecap="round" stroke-linejoin="round"/>
<path d="M25.3437 3.43741H4.65625C4.33018 3.44557 4.0202 3.58085 3.7925 3.8144C3.5648 4.04794 3.4374 4.36124 3.4375 4.68741V25.3749C3.4375 25.7064 3.5692 26.0244 3.80362 26.2588C4.03804 26.4932 4.35598 26.6249 4.6875 26.6249H25.375C25.7065 26.6249 26.0245 26.4932 26.2589 26.2588C26.4933 26.0244 26.625 25.7064 26.625 25.3749V4.65616C26.6209 4.49199 26.5846 4.33023 26.518 4.18012C26.4514 4.03001 26.3559 3.8945 26.2369 3.78131C26.1179 3.66813 25.9778 3.57951 25.8245 3.5205C25.6713 3.46149 25.5079 3.43326 25.3437 3.43741Z" stroke="black" stroke-width="1.25" stroke-linecap="round" stroke-linejoin="round"/>
<path d="M15 9.82495C13.9764 9.82495 12.9759 10.1285 12.1249 10.6971C11.2739 11.2657 10.6106 12.074 10.2189 13.0196C9.82719 13.9652 9.72471 15.0057 9.92439 16.0095C10.1241 17.0134 10.6169 17.9355 11.3407 18.6592C12.0644 19.383 12.9865 19.8758 13.9904 20.0755C14.9942 20.2752 16.0347 20.1727 16.9803 19.781C17.9259 19.3893 18.7342 18.7261 19.3028 17.875C19.8714 17.024 20.175 16.0235 20.175 15C20.175 13.6275 19.6297 12.3112 18.6592 11.3407C17.6887 10.3702 16.3724 9.82495 15 9.82495Z" stroke="black" stroke-width="1.25" stroke-linecap="round" stroke-linejoin="round"/>
</svg>
