<svg width="40" height="40" viewBox="0 0 40 40" fill="none" xmlns="http://www.w3.org/2000/svg">
<path d="M11.1316 1.92711C11.797 1.12861 12.9837 1.02072 13.7822 1.68614C15.6842 3.27111 16.4229 5.14228 16.0148 6.98853C15.6673 8.56043 14.5723 9.68128 13.7188 10.2774C13.1854 10.7347 12.9631 11.0935 12.8712 11.317C12.7835 11.5302 12.7854 11.6866 12.8153 11.8221C12.8937 12.1763 13.2323 12.5987 13.6214 12.8581C14.4863 13.4347 14.72 14.6032 14.1434 15.468C13.5668 16.3329 12.3983 16.5666 11.5335 15.99C10.6679 15.413 9.5009 14.267 9.14005 12.6346C8.73188 10.7884 9.47055 8.91718 11.3725 7.3322L11.4498 7.26783L11.5334 7.21208C11.9225 6.95265 12.2611 6.53028 12.3394 6.1761C12.3694 6.04063 12.3713 5.8842 12.2836 5.67096C12.1881 5.43883 11.9519 5.06056 11.3725 4.57776C10.574 3.91233 10.4662 2.72561 11.1316 1.92711ZM22.806 6.94583C23.4714 7.74433 23.3636 8.93105 22.5651 9.59648C21.9857 10.0793 21.7495 10.4575 21.654 10.6897C21.5663 10.9029 21.5682 11.0593 21.5982 11.1948C21.6764 11.549 22.0151 11.9714 22.4042 12.2308C23.269 12.8074 23.5027 13.9758 22.9261 14.8407C22.3496 15.7055 21.1811 15.9392 20.3163 15.3627C19.4507 14.7856 18.2837 13.6396 17.9228 12.0073C17.5147 10.161 18.2534 8.28983 20.1554 6.70486C20.9539 6.03943 22.1406 6.14733 22.806 6.94583ZM0.519626 18.9863C0.729078 18.1485 1.48185 17.5608 2.34545 17.5608H31.2405C32.1043 17.5608 32.857 18.1485 33.0665 18.9863C33.3385 20.075 33.4078 21.464 33.2603 23.0186H37.868C38.9075 23.0186 39.75 23.8612 39.75 24.9006C39.75 26.7477 39.6378 29.7395 37.7575 32.246C35.906 34.714 32.6828 36.3007 27.5258 36.4705C26.852 37.3155 26.11 38.1507 25.2943 38.9665C24.9413 39.3195 24.4626 39.5177 23.9635 39.5177H9.6226C9.12345 39.5177 8.64475 39.3195 8.2918 38.9665C4.6697 35.3442 2.49982 31.3417 1.34403 27.787C0.208079 24.2935 0.000359841 21.0634 0.519626 18.9863ZM23.1681 35.7537C23.8733 35.0062 24.509 34.2447 25.0805 33.4785C27.4125 30.3515 28.6758 27.146 29.2275 24.5144C29.4913 23.2566 29.5835 22.1756 29.571 21.3248H4.0151C3.99595 22.6401 4.22738 24.4819 4.9236 26.6232C5.8536 29.4832 7.57045 32.7355 10.4179 35.7537H23.1681ZM30.2338 32.4107C32.7423 31.9227 34.0355 30.9347 34.7465 29.9872C35.447 29.0535 35.7608 27.94 35.8943 26.7827H32.5455C32.0493 28.5597 31.2983 30.4725 30.2338 32.4107Z" fill="white"/>
</svg>
