<svg width="40" height="40" viewBox="0 0 40 40" fill="none" xmlns="http://www.w3.org/2000/svg">
<path fill-rule="evenodd" clip-rule="evenodd" d="M3.125 5C3.125 3.96448 3.96448 3.125 5 3.125H35C35.7582 3.125 36.442 3.58183 36.7322 4.28248C37.0225 4.9831 36.862 5.78957 36.3258 6.32582L22.6517 20L36.3258 33.6742C36.862 34.2105 37.0225 35.017 36.7322 35.7175C36.442 36.4182 35.7582 36.875 35 36.875H5C3.96448 36.875 3.125 36.0355 3.125 35V5ZM6.875 6.875V33.125H30.4732L18.6742 21.3258C17.9419 20.5936 17.9419 19.4064 18.6742 18.6742L30.4732 6.875H6.875Z" fill="white"/>
</svg>
