<svg width="27" height="27" viewBox="0 0 27 27" fill="none" xmlns="http://www.w3.org/2000/svg">
<path d="M23.2248 0H3.77517C2.77479 0.00278936 1.81618 0.401425 1.1088 1.1088C0.401425 1.81618 0.00278936 2.77479 0 3.77517V23.2248C0.00278936 24.2252 0.401425 25.1838 1.1088 25.8912C1.81618 26.5986 2.77479 26.9972 3.77517 27H23.2248C24.2261 27 25.1863 26.6023 25.8943 25.8943C26.6023 25.1863 27 24.2261 27 23.2248V3.77517C27 2.77393 26.6023 1.8137 25.8943 1.10572C25.1863 0.39774 24.2261 0 23.2248 0ZM25.4899 23.2248C25.4856 23.8242 25.2455 24.3978 24.8217 24.8217C24.3978 25.2455 23.8242 25.4856 23.2248 25.4899H3.77517C3.17577 25.4856 2.60215 25.2455 2.1783 24.8217C1.75446 24.3978 1.51441 23.8242 1.51007 23.2248V3.77517C1.51441 3.17577 1.75446 2.60215 2.1783 2.1783C2.60215 1.75446 3.17577 1.51441 3.77517 1.51007H23.2248C23.8242 1.51441 24.3978 1.75446 24.8217 2.1783C25.2455 2.60215 25.4856 3.17577 25.4899 3.77517V23.2248Z" fill="white"/>
<path d="M5.00745 11.6093C5.00745 11.2088 5.16654 10.8247 5.44973 10.5415C5.73293 10.2583 6.11702 10.0992 6.51751 10.0992C6.91801 10.0992 7.3021 10.2583 7.58529 10.5415C7.86848 10.8247 8.02758 11.2088 8.02758 11.6093V21.4247C8.02758 21.8252 7.86848 22.2093 7.58529 22.4925C7.3021 22.7757 6.91801 22.9348 6.51751 22.9348C6.11702 22.9348 5.73293 22.7757 5.44973 22.4925C5.16654 22.2093 5.00745 21.8252 5.00745 21.4247V11.6093Z" fill="white"/>
<path d="M6.51751 7.07311C7.3515 7.07311 8.02758 6.39703 8.02758 5.56305C8.02758 4.72906 7.3515 4.05298 6.51751 4.05298C5.68353 4.05298 5.00745 4.72906 5.00745 5.56305C5.00745 6.39703 5.68353 7.07311 6.51751 7.07311Z" fill="white"/>
<path d="M21.9865 15.5688V21.4278C21.9865 21.8283 21.8274 22.2124 21.5442 22.4956C21.261 22.7788 20.8769 22.9379 20.4764 22.9379C20.0759 22.9379 19.6919 22.7788 19.4087 22.4956C19.1255 22.2124 18.9664 21.8283 18.9664 21.4278V15.5688C18.9664 14.922 18.7094 14.3017 18.2521 13.8443C17.7947 13.387 17.1744 13.13 16.5276 13.13C15.8808 13.13 15.2605 13.387 14.8032 13.8443C14.3458 14.3017 14.0889 14.922 14.0889 15.5688V21.4278C14.0889 21.8283 13.9298 22.2124 13.6466 22.4956C13.3634 22.7788 12.9793 22.9379 12.5788 22.9379C12.1783 22.9379 11.7942 22.7788 11.511 22.4956C11.2278 22.2124 11.0687 21.8283 11.0687 21.4278V11.6124C11.075 11.2139 11.236 10.8334 11.5179 10.5515C11.7998 10.2697 12.1802 10.1086 12.5788 10.1023C12.8346 10.0953 13.0875 10.1576 13.3108 10.2825C13.534 10.4075 13.7194 10.5904 13.8472 10.8121C14.6775 10.341 15.6169 10.0962 16.5715 10.1023C17.5261 10.1084 18.4623 10.3652 19.2865 10.8468C20.1107 11.3285 20.7939 12.0182 21.2677 12.8469C21.7416 13.6756 21.9894 14.6142 21.9865 15.5688Z" fill="white"/>
</svg>
