<svg width="30" height="30" viewBox="0 0 30 30" fill="none" xmlns="http://www.w3.org/2000/svg">
<path d="M9.7749 8.88135C10.0338 8.88135 10.2437 8.67148 10.2437 8.4126C10.2437 8.15371 10.0338 7.94385 9.7749 7.94385C9.51602 7.94385 9.30615 8.15371 9.30615 8.4126C9.30615 8.67148 9.51602 8.88135 9.7749 8.88135Z" fill="black"/>
<path d="M9.7749 10.5813V19.9438" stroke="black" stroke-width="1.25" stroke-linecap="round" stroke-linejoin="round"/>
<path d="M20.6938 19.9438V13.9375C20.6922 12.9733 20.3084 12.0491 19.6266 11.3673C18.9448 10.6855 18.0206 10.3017 17.0563 10.3C16.091 10.3 15.1652 10.6831 14.482 11.3651C13.7989 12.0471 13.4143 12.9722 13.4126 13.9375V19.9438" stroke="black" stroke-width="1.25" stroke-linecap="round" stroke-linejoin="round"/>
<path d="M13.4126 13.9375V10.5813" stroke="black" stroke-width="1.25" stroke-linecap="round" stroke-linejoin="round"/>
<path d="M25.3125 3.4375H4.6875C4.35598 3.4375 4.03804 3.5692 3.80362 3.80362C3.5692 4.03804 3.4375 4.35598 3.4375 4.6875V25.3125C3.4375 25.644 3.5692 25.962 3.80362 26.1964C4.03804 26.4308 4.35598 26.5625 4.6875 26.5625H25.3125C25.644 26.5625 25.962 26.4308 26.1964 26.1964C26.4308 25.962 26.5625 25.644 26.5625 25.3125V4.6875C26.5625 4.35598 26.4308 4.03804 26.1964 3.80362C25.962 3.5692 25.644 3.4375 25.3125 3.4375Z" stroke="black" stroke-width="1.25" stroke-linecap="round" stroke-linejoin="round"/>
</svg>
