<svg width="47" height="46" viewBox="0 0 47 46" fill="none" xmlns="http://www.w3.org/2000/svg">
<g clip-path="url(#clip0_226_99)">
<path d="M43.1225 22.5616V17.6899C43.967 17.4614 44.5913 16.711 44.5913 15.814C44.5913 14.7359 43.6953 13.859 42.5938 13.859C42.3132 13.859 42.0474 13.9165 41.805 14.0185L38.3314 9.76929C38.5708 9.44729 38.7163 9.05342 38.7163 8.62504C38.7163 7.54692 37.8203 6.67004 36.7188 6.67004C36.1298 6.67004 35.6054 6.92448 35.2397 7.32267L29.8656 4.69204C29.8905 4.56986 29.9038 4.44336 29.9038 4.31254C29.9038 3.23442 29.0078 2.35754 27.9063 2.35754C26.9883 2.35754 26.2216 2.96848 25.9881 3.79504H19.5417C19.3082 2.96848 18.5415 2.35754 17.625 2.35754C16.5234 2.35754 15.6275 3.23442 15.6275 4.31254C15.6275 4.44336 15.6422 4.56986 15.6672 4.69204L11.7603 6.60392C11.3946 6.20717 10.8702 5.95129 10.2813 5.95129C9.17969 5.95129 8.28375 6.82817 8.28375 7.90629C8.28375 8.29873 8.40419 8.66242 8.60835 8.96861L5.28457 12.6285C5.01872 12.4991 4.7235 12.42 4.40625 12.42C3.30469 12.42 2.40875 13.2969 2.40875 14.375C2.40875 15.2735 3.03297 16.0224 3.8775 16.251V21.1227C3.03297 21.3512 2.40875 22.1016 2.40875 22.9986C2.40875 24.0767 3.30469 24.9536 4.40625 24.9536C5.20819 24.9536 5.89557 24.4864 6.21428 23.8165L11.2433 24.6374C11.3476 25.622 12.1877 26.3925 13.2188 26.3925C13.3524 26.3925 13.4817 26.3782 13.6065 26.3537L14.8256 28.7385C14.4202 29.0979 14.1588 29.6111 14.1588 30.1875C14.1588 31.2657 15.0547 32.1425 16.1563 32.1425C16.8466 32.1425 17.4561 31.7975 17.8159 31.2743L22.983 32.9605C22.9801 32.995 22.9713 33.028 22.9713 33.0625C22.9713 33.961 23.5955 34.7114 24.44 34.9399V39.8102C23.5955 40.0387 22.9713 40.7891 22.9713 41.6875C22.9713 42.7657 23.8672 43.6425 24.9688 43.6425C26.0703 43.6425 26.9663 42.7657 26.9663 41.6875C26.9663 40.7905 26.342 40.0387 25.4975 39.8102V34.9385C26.342 34.7099 26.9663 33.9595 26.9663 33.0611C26.9663 32.4114 26.6373 31.8392 26.1379 31.4827L27.1396 28.8665L31.7852 30.166C31.7852 30.1732 31.7838 30.1804 31.7838 30.1875C31.7838 31.0845 32.408 31.8364 33.2525 32.0649V39.8116C32.408 40.0402 31.7838 40.7905 31.7838 41.689C31.7838 42.7671 32.6797 43.644 33.7813 43.644C34.8828 43.644 35.7788 42.7671 35.7788 41.689C35.7788 40.792 35.1545 40.0402 34.31 39.8116V32.0649C35.1545 31.8364 35.7788 31.086 35.7788 30.1875C35.7788 29.9734 35.7347 29.7707 35.6701 29.578L41.2924 25.9081C41.6435 26.2071 42.0944 26.3925 42.5938 26.3925C43.6953 26.3925 44.5913 25.5157 44.5913 24.4375C44.5913 23.5405 43.967 22.7902 43.1225 22.5616ZM31.3637 21.4648C31.3608 21.4001 31.3534 21.3354 31.3431 21.2722L35.8213 19.3244L40.6873 23.4917L31.3637 21.4648ZM29.375 22.4825C28.8565 22.4825 28.435 22.07 28.435 21.5625C28.435 21.0551 28.8565 20.6425 29.375 20.6425C29.8935 20.6425 30.315 21.0551 30.315 21.5625C30.315 22.07 29.8935 22.4825 29.375 22.4825ZM29.375 19.6075C28.2734 19.6075 27.3775 20.4844 27.3775 21.5625C27.3775 22.2123 27.7065 22.7844 28.2059 23.1395L26.4933 27.6101L23.6998 26.8295L21.548 19.4609L29.5718 14.0617L30.4942 14.7646L34.9416 18.574L30.9098 20.3277C30.5441 19.8922 29.9963 19.6075 29.375 19.6075ZM13.4112 22.5012L11.9292 14.1594L17.2343 13.6405V13.6347C17.5222 14.3679 18.2433 14.8925 19.0938 14.8925C19.1011 14.8925 19.107 14.8911 19.1143 14.8911L20.3231 19.0297L14.498 22.9483C14.1969 22.701 13.8239 22.5415 13.4112 22.5012ZM19.0938 13.8575C18.5753 13.8575 18.1538 13.445 18.1538 12.9375C18.1538 12.4301 18.5753 12.0175 19.0938 12.0175C19.6122 12.0175 20.0338 12.4301 20.0338 12.9375C20.0338 13.445 19.6122 13.8575 19.0938 13.8575ZM15.0988 23.8007L20.6286 20.079L22.5013 26.4946L15.2133 24.4562C15.2133 24.449 15.2148 24.4433 15.2148 24.4361C15.2163 24.2133 15.1693 24.002 15.0988 23.8007ZM35.4395 10.1143C35.7876 10.4004 36.2297 10.58 36.7188 10.58C36.9993 10.58 37.2651 10.5225 37.5075 10.4205L40.9811 14.6683C40.7417 14.9903 40.5963 15.3842 40.5963 15.8125C40.5963 15.9117 40.6109 16.0066 40.6256 16.1015L36.0079 18.1097L31.1683 13.9654L30.4868 13.4464L35.4395 10.1143ZM41.4937 22.8074L36.8847 18.8615L41.0574 17.0474C41.3159 17.3535 41.6626 17.5807 42.065 17.6885V22.5602C41.8608 22.6162 41.667 22.6967 41.4937 22.8074ZM43.5338 15.8125C43.5338 16.32 43.1122 16.7325 42.5938 16.7325C42.0753 16.7325 41.6538 16.32 41.6538 15.8125C41.6538 15.3051 42.0753 14.8925 42.5938 14.8925C43.1122 14.8925 43.5338 15.3051 43.5338 15.8125ZM36.7188 7.70504C37.2372 7.70504 37.6588 8.11761 37.6588 8.62504C37.6588 9.13248 37.2372 9.54504 36.7188 9.54504C36.2003 9.54504 35.7788 9.13248 35.7788 8.62504C35.7788 8.11761 36.2003 7.70504 36.7188 7.70504ZM27.9063 3.39254C28.4247 3.39254 28.8463 3.80511 28.8463 4.31254C28.8463 4.81998 28.4247 5.23254 27.9063 5.23254C27.3878 5.23254 26.9663 4.81998 26.9663 4.31254C26.9663 3.80511 27.3878 3.39254 27.9063 3.39254ZM27.9063 6.26754C28.4952 6.26754 29.0196 6.01311 29.3853 5.61492L34.7594 8.24554C34.7345 8.36773 34.7213 8.49423 34.7213 8.62504C34.7213 8.84929 34.7683 9.06061 34.8388 9.26186L29.61 12.7809L19.4698 5.06148C19.5006 4.98817 19.5212 4.90911 19.5432 4.83004H25.9895C26.2216 5.65661 26.9883 6.26754 27.9063 6.26754ZM17.625 3.39254C18.1435 3.39254 18.565 3.80511 18.565 4.31254C18.565 4.81998 18.1435 5.23254 17.625 5.23254C17.1065 5.23254 16.685 4.81998 16.685 4.31254C16.685 3.80511 17.1065 3.39254 17.625 3.39254ZM16.146 5.61492C16.5117 6.01167 17.036 6.26754 17.625 6.26754C18.0715 6.26754 18.4813 6.11804 18.8147 5.87367L28.6964 13.3947L21.2425 18.4101L20.1307 14.6007C20.7035 14.2572 21.0913 13.6434 21.0913 12.9375C21.0913 11.8594 20.1953 10.9825 19.0938 10.9825C18.1053 10.9825 17.2887 11.6898 17.13 12.6141V12.6098L11.7471 13.1359L11.1302 9.66867C11.8073 9.35529 12.2788 8.68542 12.2788 7.90629C12.2788 7.77548 12.2641 7.64898 12.2391 7.52679L16.146 5.61492ZM6.26422 13.6721C6.21428 13.5456 6.15407 13.4249 6.07916 13.3127L9.40294 9.65286C9.61297 9.75492 9.84357 9.81817 10.0888 9.84261L10.6925 13.2394L6.26422 13.6721ZM10.2813 6.98629C10.7997 6.98629 11.2213 7.39886 11.2213 7.90629C11.2213 8.41373 10.7997 8.82629 10.2813 8.82629C9.76278 8.82629 9.34125 8.41373 9.34125 7.90629C9.34125 7.39886 9.76278 6.98629 10.2813 6.98629ZM3.46625 14.375C3.46625 13.8676 3.88778 13.455 4.40625 13.455C4.92472 13.455 5.34625 13.8676 5.34625 14.375C5.34625 14.8825 4.92472 15.295 4.40625 15.295C3.88778 15.295 3.46625 14.8825 3.46625 14.375ZM4.40625 23.92C3.88778 23.92 3.46625 23.5075 3.46625 23C3.46625 22.4926 3.88778 22.08 4.40625 22.08C4.92472 22.08 5.34625 22.4926 5.34625 23C5.34625 23.5075 4.92472 23.92 4.40625 23.92ZM11.4107 23.6182L6.38172 22.7974C6.29506 21.9909 5.71344 21.334 4.93353 21.1227V16.251C5.67231 16.0512 6.23778 15.4517 6.3685 14.7028L10.8732 14.2615L12.3683 22.6752C11.9483 22.8707 11.609 23.2042 11.4107 23.6182ZM12.2788 24.4375C12.2788 23.9301 12.7003 23.5175 13.2188 23.5175C13.7372 23.5175 14.1588 23.9301 14.1588 24.4375C14.1588 24.945 13.7372 25.3575 13.2188 25.3575C12.7003 25.3575 12.2788 24.945 12.2788 24.4375ZM16.1563 31.1075C15.6378 31.1075 15.2163 30.695 15.2163 30.1875C15.2163 29.6801 15.6378 29.2675 16.1563 29.2675C16.6747 29.2675 17.0963 29.6801 17.0963 30.1875C17.0963 30.695 16.6747 31.1075 16.1563 31.1075ZM18.1435 30.2896C18.1449 30.2551 18.1538 30.222 18.1538 30.1875C18.1538 29.1094 17.2578 28.2325 16.1563 28.2325C16.0226 28.2325 15.8933 28.2469 15.7685 28.2714L14.5494 25.8865C14.6934 25.76 14.8168 25.6149 14.9181 25.4524L22.8435 27.6676L23.9333 31.3994C23.6865 31.5474 23.4706 31.7415 23.3091 31.9772L18.1435 30.2896ZM25.9088 41.6875C25.9088 42.195 25.4872 42.6075 24.9688 42.6075C24.4503 42.6075 24.0288 42.195 24.0288 41.6875C24.0288 41.1801 24.4503 40.7675 24.9688 40.7675C25.4872 40.7675 25.9088 41.1801 25.9088 41.6875ZM24.9688 33.9825C24.4503 33.9825 24.0288 33.57 24.0288 33.0625C24.0288 32.5551 24.4503 32.1425 24.9688 32.1425C25.4872 32.1425 25.9088 32.5551 25.9088 33.0625C25.9088 33.57 25.4872 33.9825 24.9688 33.9825ZM25.1465 31.1248C25.0863 31.119 25.029 31.1075 24.9688 31.1075C24.9614 31.1075 24.9555 31.109 24.9482 31.109L24.0405 28.0011L26.1203 28.5819L25.1465 31.1248ZM27.5126 27.8962L29.1973 23.4989C29.2575 23.5046 29.3148 23.5161 29.375 23.5161C30.1373 23.5161 30.7953 23.0906 31.1316 22.4739L40.6065 24.5339C40.6153 24.7121 40.6506 24.8832 40.7064 25.0456L35.084 28.7155C34.7315 28.418 34.2806 28.2325 33.7813 28.2325C33.0601 28.2325 32.4329 28.612 32.0804 29.1741L27.5126 27.8962ZM34.7213 41.6875C34.7213 42.195 34.2997 42.6075 33.7813 42.6075C33.2628 42.6075 32.8413 42.195 32.8413 41.6875C32.8413 41.1801 33.2628 40.7675 33.7813 40.7675C34.2997 40.7675 34.7213 41.1801 34.7213 41.6875ZM33.7813 31.1075C33.2628 31.1075 32.8413 30.695 32.8413 30.1875C32.8413 29.6801 33.2628 29.2675 33.7813 29.2675C34.2997 29.2675 34.7213 29.6801 34.7213 30.1875C34.7213 30.695 34.2997 31.1075 33.7813 31.1075ZM42.5938 25.3575C42.0753 25.3575 41.6538 24.945 41.6538 24.4375C41.6538 23.9301 42.0753 23.5175 42.5938 23.5175C43.1122 23.5175 43.5338 23.9301 43.5338 24.4375C43.5338 24.945 43.1122 25.3575 42.5938 25.3575Z" fill="white"/>
</g>
<defs>
<clipPath id="clip0_226_99">
<rect width="47" height="46" fill="white"/>
</clipPath>
</defs>
</svg>
