<svg width="40" height="40" viewBox="0 0 40 40" fill="none" xmlns="http://www.w3.org/2000/svg">
<path d="M15.95 18.5C14.607 17.6195 13.5848 16.3281 13.0363 14.8187C12.4877 13.3093 12.4421 11.663 12.9064 10.1255C13.3706 8.58813 14.3198 7.24215 15.6121 6.28865C16.9043 5.33515 18.4704 4.82529 20.0764 4.83523C21.6823 4.84516 23.2419 5.37435 24.5223 6.34377C25.8027 7.31318 26.7351 8.6708 27.1803 10.2138C27.6255 11.7569 27.5596 13.4025 26.9924 14.905C26.4252 16.4075 25.3872 17.6862 24.0333 18.55" stroke="white" stroke-width="1.25" stroke-linecap="round" stroke-linejoin="round"/>
<path d="M18.6333 27.7334C18.6315 29.3612 18.096 30.9435 17.1089 32.2378C16.1217 33.5321 14.7374 34.4671 13.1681 34.8994C11.5987 35.3317 9.93089 35.2376 8.42018 34.6313C6.90948 34.0251 5.63922 32.9402 4.80407 31.543C3.96892 30.1457 3.61494 28.5132 3.79638 26.8955C3.97782 25.2779 4.68467 23.7643 5.80861 22.5868C6.93255 21.4093 8.41158 20.6328 10.019 20.3763C11.6265 20.1198 13.2738 20.3974 14.7083 21.1667" stroke="white" stroke-width="1.25" stroke-linecap="round" stroke-linejoin="round"/>
<path d="M32.8417 21.475C34.195 22.3484 35.2284 23.6372 35.7868 25.148C36.3451 26.6587 36.3983 28.3099 35.9382 29.8534C35.4781 31.3969 34.5297 32.7495 33.2354 33.7081C31.941 34.6666 30.3706 35.1793 28.76 35.1693C27.1494 35.1592 25.5855 34.6269 24.3033 33.6522C23.021 32.6775 22.0896 31.3132 21.6489 29.764C21.2082 28.2148 21.282 26.5645 21.8592 25.0608C22.4364 23.5572 23.4859 22.2814 24.85 21.425" stroke="white" stroke-width="1.25" stroke-linecap="round" stroke-linejoin="round"/>
<path d="M18.1 15.0417C17.4764 14.6276 17.0019 14.0245 16.7463 13.3209C16.4908 12.6173 16.4675 11.8503 16.6799 11.1325C16.8924 10.4147 17.3294 9.78394 17.9268 9.33282C18.5241 8.88169 19.2504 8.63398 19.9989 8.62605C20.7475 8.61812 21.4788 8.85039 22.0856 9.28876C22.6924 9.72713 23.1427 10.3485 23.3703 11.0616C23.5979 11.7748 23.5909 12.5421 23.3503 13.2509C23.1096 13.9598 22.6481 14.5728 22.0333 15" stroke="white" stroke-width="1.25" stroke-linecap="round" stroke-linejoin="round"/>
<path d="M14.6917 27.7334C14.6924 28.4991 14.442 29.2439 13.9788 29.8537C13.5157 30.4634 12.8654 30.9045 12.1275 31.1093C11.3897 31.314 10.6051 31.2711 9.89394 30.9872C9.1828 30.7033 8.58439 30.194 8.19043 29.5374C7.79647 28.8808 7.62871 28.1132 7.71285 27.3521C7.797 26.591 8.12841 25.8785 8.65628 25.3238C9.18416 24.7692 9.87937 24.4029 10.6353 24.2812C11.3913 24.1595 12.1664 24.2891 12.8417 24.65" stroke="white" stroke-width="1.25" stroke-linecap="round" stroke-linejoin="round"/>
<path d="M30.8333 24.9417C31.4226 25.376 31.859 25.986 32.0795 26.684C32.3 27.382 32.2934 28.1319 32.0606 28.8259C31.8277 29.5199 31.3807 30.1221 30.7838 30.5459C30.1869 30.9696 29.4709 31.193 28.739 31.1839C28.007 31.1749 27.2968 30.9338 26.7106 30.4954C26.1244 30.057 25.6924 29.4439 25.4769 28.7443C25.2613 28.0448 25.2733 27.2949 25.511 26.6025C25.7488 25.9102 26.2001 25.3112 26.8 24.8917" stroke="white" stroke-width="1.25" stroke-linecap="round" stroke-linejoin="round"/>
<path d="M18.1 15.0416L15.95 18.5" stroke="white" stroke-width="1.25" stroke-linecap="round" stroke-linejoin="round"/>
<path d="M14.7083 21.1666L12.8417 24.65" stroke="white" stroke-width="1.25" stroke-linecap="round" stroke-linejoin="round"/>
<path d="M24.0333 18.55L22.0333 15" stroke="white" stroke-width="1.25" stroke-linecap="round" stroke-linejoin="round"/>
<path d="M24.85 21.425L26.825 24.8917" stroke="white" stroke-width="1.25" stroke-linecap="round" stroke-linejoin="round"/>
<path d="M30.8333 24.9416L32.8167 21.475" stroke="white" stroke-width="1.25" stroke-linecap="round" stroke-linejoin="round"/>
<path d="M18.5917 27.7333H14.7333" stroke="white" stroke-width="1.25" stroke-linecap="round" stroke-linejoin="round"/>
</svg>
